<?xml version="1.0" standalone="no"?>
<!DOCTYPE svg PUBLIC "-//W3C//DTD SVG 20010904//EN"
 "http://www.w3.org/TR/2001/REC-SVG-20010904/DTD/svg10.dtd">
<svg version="1.0" xmlns="http://www.w3.org/2000/svg"
 width="640.000000pt" height="640.000000pt" viewBox="0 0 640.000000 640.000000"
 preserveAspectRatio="xMidYMid meet">
<metadata>
Created by potrace 1.16, written by Peter Selinger 2001-2019
</metadata>
<g transform="translate(0.000000,640.000000) scale(0.100000,-0.100000)"
fill="#000000" stroke="none">
<path d="M0 3200 l0 -3200 3200 0 3200 0 0 3200 0 3200 -3200 0 -3200 0 0
-3200z m3987 949 c90 -21 149 -55 194 -111 59 -75 149 -261 149 -309 0 -21 5
-41 10 -44 6 -4 10 -56 10 -123 -1 -89 -5 -130 -20 -172 -11 -30 -19 -69 -20
-86 0 -17 -7 -37 -15 -44 -8 -7 -15 -18 -15 -25 0 -8 -6 -26 -14 -42 -8 -15
-24 -60 -35 -99 -12 -39 -35 -90 -51 -113 -17 -22 -30 -45 -30 -50 0 -5 -15
-31 -32 -58 -18 -27 -37 -56 -43 -64 -15 -23 -66 -94 -98 -137 -16 -20 -79
-89 -140 -153 -62 -63 -144 -152 -184 -196 -64 -72 -115 -117 -257 -228 -21
-16 -66 -52 -100 -79 -33 -27 -78 -60 -98 -74 l-37 -24 -34 21 c-19 12 -43 21
-53 21 -41 1 -138 65 -182 120 -24 30 -92 105 -150 165 -103 106 -158 172
-249 294 -22 31 -52 69 -65 86 -22 28 -79 128 -97 170 -21 49 -32 100 -51 225
-12 74 -30 160 -42 190 -29 76 -39 344 -14 417 8 26 18 64 21 83 13 89 116
209 244 283 122 71 164 82 321 82 123 0 139 -2 180 -24 60 -32 139 -103 172
-156 34 -54 45 -61 54 -33 7 24 151 178 166 178 4 0 21 14 36 30 16 17 36 30
44 30 8 0 18 4 23 9 10 9 64 16 200 27 39 3 74 10 80 15 13 13 165 11 222 -2z"/>
<path d="M3694 4030 c-82 -6 -96 -10 -145 -43 -30 -20 -70 -55 -90 -79 -40
-49 -119 -164 -119 -174 0 -3 -21 -33 -47 -65 -27 -32 -48 -62 -49 -66 0 -5
-6 -21 -13 -38 -23 -57 -24 -79 -2 -99 12 -11 21 -23 21 -27 0 -9 27 -41 103
-123 48 -52 64 -84 53 -111 -15 -40 -67 7 -232 208 l-55 68 39 77 c54 107 58
126 27 146 -14 9 -25 21 -25 26 0 5 -18 47 -40 93 -36 77 -43 85 -87 105 -91
41 -123 46 -189 29 -32 -9 -72 -21 -89 -28 -16 -7 -33 -13 -36 -13 -3 -1 -21
-8 -40 -17 -19 -10 -59 -27 -89 -40 -87 -36 -182 -138 -242 -259 -21 -41 -22
-58 -21 -210 1 -257 11 -325 55 -397 21 -33 52 -91 71 -129 18 -38 45 -88 60
-111 15 -24 27 -46 27 -49 0 -4 12 -23 28 -43 15 -20 32 -43 37 -52 39 -63 74
-110 125 -164 32 -34 69 -80 83 -101 14 -22 50 -61 81 -89 31 -27 96 -87 144
-132 48 -46 97 -86 108 -89 35 -9 99 31 176 112 40 42 117 119 171 172 54 54
130 138 168 187 38 50 114 140 169 200 55 61 99 115 100 121 0 5 16 25 35 44
19 19 35 39 35 45 0 6 20 40 45 75 25 35 45 69 45 76 0 7 4 14 8 16 5 2 36 58
69 124 72 143 76 168 74 422 -1 183 -7 210 -62 281 -19 23 -109 71 -185 97
-41 14 -166 35 -194 32 -8 0 -56 -4 -106 -8z"/>
<path d="M2437 3888 c-46 -45 -117 -141 -117 -158 0 -6 -4 -10 -8 -10 -9 0
-29 -69 -36 -130 -5 -43 -3 -40 42 51 26 53 63 114 82 136 67 77 120 142 120
147 0 20 -47 -1 -83 -36z"/>
<path d="M2390 2867 c0 -40 51 -153 119 -267 49 -81 184 -230 208 -230 13 0
12 5 -3 28 -16 25 -94 124 -128 163 -8 10 -26 39 -42 65 -15 27 -35 58 -45 69
-10 11 -36 58 -58 104 -47 98 -51 103 -51 68z"/>
</g>
</svg>
