<svg xmlns="http://www.w3.org/2000/svg" width="24" height="24" viewBox="0 0 24 24">
  <g id="volume">
    <path d="M1,22v3c0,0.343.007,0.829,0,1a0.556,0.556,0,0,0,0,.057A1.377,1.377,0,0,0,2,27H5l2,2,1,1H9V18H8L5,21a25.547,25.547,0,0,1-3,0,0.7,0.7,0,0,0-.227,0A1.318,1.318,0,0,0,1,22Z" transform="translate(4 -11)"/>
    <path d="M10.226,21a0.752,0.752,0,0,1,0-1,1.09,1.09,0,0,1,.966.3c1.757,1.381.469,5.492-.1,6.807a1.076,1.076,0,0,1-.553.754A1.063,1.063,0,0,1,10.226,27c-0.077-1.227.838-1.939,1-3a3.621,3.621,0,0,0-.963-2.967C10.255,21.027,10.239,21.013,10.226,21Z" transform="translate(4 -11)"/>
  </g>
</svg>
