<?xml version="1.0" standalone="no"?>
<!DOCTYPE svg PUBLIC "-//W3C//DTD SVG 20010904//EN"
 "http://www.w3.org/TR/2001/REC-SVG-20010904/DTD/svg10.dtd">
<svg version="1.0" xmlns="http://www.w3.org/2000/svg"
 width="1024.000000pt" height="1024.000000pt" viewBox="0 0 1024.000000 1024.000000"
 preserveAspectRatio="xMidYMid meet">

<g transform="translate(0.000000,1024.000000) scale(0.100000,-0.100000)"
fill="#000000" stroke="none">
<path d="M7325 9744 c-16 -3 -44 -12 -62 -20 -17 -7 -42 -14 -56 -14 -14 0
-28 -4 -31 -8 -3 -5 -67 -12 -143 -16 -75 -4 -142 -11 -147 -15 -6 -5 -73 -12
-148 -16 -102 -5 -138 -11 -138 -20 0 -10 -34 -15 -125 -20 -86 -5 -128 -12
-136 -21 -6 -8 -26 -14 -43 -14 -17 0 -40 -7 -50 -15 -11 -8 -40 -15 -64 -15
-25 0 -50 -6 -58 -15 -9 -8 -33 -15 -53 -15 -22 0 -44 -6 -51 -15 -7 -8 -22
-15 -34 -15 -12 0 -26 -4 -31 -9 -6 -5 -35 -19 -65 -32 -30 -12 -74 -35 -98
-51 -24 -15 -50 -28 -58 -28 -9 0 -22 -7 -30 -15 -9 -8 -24 -15 -34 -15 -10 0
-20 -7 -24 -15 -3 -8 -16 -15 -30 -15 -15 0 -27 -7 -30 -18 -6 -17 -55 -52
-74 -52 -14 0 -152 -137 -152 -150 0 -6 -27 -37 -60 -71 -33 -33 -60 -66 -60
-73 0 -8 -22 -37 -50 -65 -27 -28 -50 -59 -50 -69 0 -10 -26 -40 -57 -67 -31
-28 -88 -80 -126 -117 -66 -63 -71 -66 -110 -62 -66 7 -87 13 -87 28 0 7 -9
25 -20 39 -11 14 -20 36 -20 50 0 13 -7 30 -15 37 -8 7 -15 18 -15 24 0 16
-52 66 -68 66 -15 0 -68 45 -147 127 -52 53 -66 62 -107 68 -27 4 -48 11 -48
15 0 4 -12 11 -26 14 -15 4 -33 14 -41 21 -8 8 -23 15 -34 15 -10 0 -19 4 -19
10 0 5 -12 13 -26 16 -15 4 -50 20 -80 35 -29 16 -63 29 -74 29 -11 0 -20 4
-20 9 0 5 -14 12 -30 16 -17 4 -30 10 -30 14 0 4 -19 15 -42 25 -24 10 -56 24
-73 32 -16 7 -45 16 -63 19 -18 4 -36 13 -38 20 -3 7 -31 15 -67 19 -34 3 -63
11 -65 16 -5 13 -259 13 -264 1 -2 -5 -198 -12 -442 -16 -410 -7 -440 -9 -454
-26 -12 -14 -30 -19 -63 -19 -29 0 -51 -6 -59 -15 -8 -10 -30 -15 -65 -15 -35
0 -57 -5 -65 -15 -8 -10 -30 -15 -65 -15 -35 0 -57 -5 -65 -15 -7 -8 -20 -15
-30 -15 -10 0 -23 -7 -30 -15 -7 -8 -23 -15 -35 -15 -12 0 -28 -7 -35 -15 -7
-8 -21 -15 -30 -15 -23 0 -82 -31 -93 -47 -4 -7 -18 -13 -31 -13 -13 0 -29 -7
-36 -15 -7 -8 -20 -15 -30 -15 -10 0 -23 -7 -30 -15 -7 -8 -23 -15 -35 -15
-12 0 -28 -7 -35 -15 -7 -8 -20 -15 -29 -15 -10 0 -31 -16 -47 -35 -16 -19
-35 -35 -43 -35 -14 0 -91 -57 -104 -77 -4 -7 -16 -13 -26 -13 -10 0 -31 -13
-47 -30 -16 -16 -38 -30 -50 -30 -11 0 -34 -13 -50 -30 -16 -16 -36 -30 -45
-30 -8 0 -28 -13 -44 -30 -16 -16 -32 -30 -37 -30 -10 0 -48 -37 -48 -48 0
-11 -38 -42 -66 -52 -13 -5 -24 -14 -24 -19 0 -5 -9 -11 -20 -14 -11 -3 -20
-13 -20 -22 0 -9 -20 -38 -45 -63 -25 -25 -45 -53 -45 -62 0 -10 -7 -23 -15
-30 -8 -7 -15 -21 -15 -32 0 -11 -9 -22 -20 -25 -14 -4 -20 -14 -20 -33 0 -15
-7 -33 -15 -40 -8 -7 -15 -20 -15 -30 0 -10 -7 -23 -15 -30 -8 -7 -15 -27 -15
-45 0 -18 -7 -38 -15 -45 -9 -8 -15 -30 -15 -60 0 -30 -6 -52 -15 -60 -11 -9
-15 -34 -15 -95 0 -61 -4 -86 -15 -95 -11 -9 -15 -34 -15 -96 0 -73 -2 -85
-20 -94 -19 -10 -20 -21 -20 -399 0 -333 -2 -390 -15 -401 -21 -18 -21 -162 0
-180 11 -9 15 -34 15 -96 0 -73 3 -85 20 -96 16 -11 20 -24 20 -74 0 -43 5
-65 15 -74 10 -8 15 -31 15 -66 0 -33 5 -58 15 -68 13 -12 15 -65 15 -348 0
-278 2 -337 15 -354 8 -10 15 -26 15 -35 0 -9 7 -22 15 -29 8 -7 15 -27 15
-45 0 -18 7 -38 15 -45 8 -7 15 -25 15 -41 0 -17 9 -37 20 -46 13 -12 20 -30
20 -54 0 -20 7 -42 15 -49 9 -8 15 -30 15 -60 0 -30 6 -52 15 -60 11 -9 15
-32 15 -80 0 -48 4 -71 15 -80 12 -10 15 -37 15 -120 0 -83 3 -110 15 -120 10
-8 15 -31 15 -66 0 -43 4 -55 20 -64 14 -7 20 -21 20 -44 0 -19 7 -39 15 -46
9 -8 15 -29 15 -56 0 -24 6 -49 15 -58 8 -8 15 -23 15 -33 0 -11 7 -28 15 -39
8 -10 15 -33 15 -50 0 -17 7 -37 15 -44 8 -7 15 -27 15 -46 0 -23 6 -37 20
-44 14 -7 20 -21 20 -44 0 -19 7 -39 15 -46 8 -7 15 -27 15 -45 0 -18 7 -38
15 -45 8 -7 15 -29 15 -50 0 -21 7 -43 15 -50 8 -7 15 -27 15 -45 0 -18 7 -38
15 -45 8 -7 15 -20 15 -30 0 -10 7 -23 15 -30 8 -7 15 -21 15 -31 0 -10 9 -23
20 -29 11 -6 20 -21 20 -33 0 -12 14 -35 30 -51 17 -16 30 -36 30 -45 0 -9 50
-63 110 -120 62 -59 110 -113 110 -123 0 -15 194 -218 208 -218 12 0 82 -80
82 -94 0 -9 7 -19 15 -22 8 -4 15 -16 15 -29 0 -12 16 -38 35 -58 19 -20 35
-42 35 -49 0 -20 197 -208 217 -208 10 0 38 -22 63 -50 25 -27 48 -50 52 -50
4 0 26 -20 50 -45 24 -25 51 -45 61 -45 10 0 20 -7 23 -15 4 -8 12 -15 18 -15
7 0 25 -14 41 -30 16 -17 36 -30 44 -30 24 -1 61 -36 61 -58 0 -11 7 -25 15
-32 8 -7 15 -22 15 -34 0 -14 13 -32 33 -46 17 -13 36 -29 40 -37 4 -7 16 -13
25 -13 10 0 29 -13 42 -30 14 -16 30 -29 35 -30 14 0 175 -157 175 -170 0 -6
6 -13 13 -16 7 -2 82 -72 167 -154 85 -82 161 -150 168 -150 6 0 12 -6 12 -13
0 -17 42 -57 60 -57 7 0 32 -20 55 -44 23 -24 47 -45 53 -47 6 -2 45 -37 86
-76 43 -43 83 -73 95 -73 12 0 26 -11 35 -28 16 -31 198 -192 218 -192 7 0 26
-14 42 -30 16 -17 39 -30 50 -30 12 0 47 -26 81 -60 37 -37 68 -60 82 -60 12
0 27 -9 33 -20 6 -11 19 -20 29 -20 10 0 24 -7 31 -15 7 -8 27 -15 46 -15 18
0 39 -7 48 -15 8 -8 25 -15 38 -15 13 0 33 -7 44 -15 22 -17 214 -21 230 -5 5
5 31 13 58 16 40 6 56 15 97 55 26 27 53 49 59 49 5 0 29 13 52 30 22 16 46
30 52 30 6 1 29 19 51 41 22 22 51 42 65 46 14 3 43 24 65 45 22 21 49 41 59
44 11 4 37 19 59 35 22 16 46 29 54 29 7 0 13 5 13 10 0 6 12 16 28 22 15 7
41 23 58 35 17 13 46 26 65 29 19 4 52 20 73 35 22 16 47 29 56 29 9 0 36 20
60 45 24 25 49 45 55 45 14 0 60 46 105 104 19 24 47 49 61 54 14 5 60 42 102
81 42 39 82 71 87 71 13 0 23 8 111 87 37 35 75 63 83 63 17 0 126 106 126
123 0 16 186 187 204 187 7 0 33 20 57 45 24 25 53 48 64 51 11 4 35 20 53 35
18 16 39 29 46 29 7 0 55 38 106 85 52 47 104 88 116 91 13 3 25 12 28 20 3 8
12 14 20 14 8 0 17 8 20 18 3 10 15 24 27 32 12 8 51 44 88 80 37 36 84 79
104 97 20 17 37 35 37 41 0 11 99 136 111 140 5 2 9 9 9 16 0 7 29 42 65 79
36 37 65 71 65 76 0 13 233 251 246 251 6 0 45 36 88 80 43 44 82 80 86 80 4
0 11 12 14 26 4 15 54 74 111 132 58 57 105 109 105 114 0 5 20 31 45 57 25
26 45 55 45 64 0 8 16 32 35 51 19 20 35 43 35 51 0 7 4 16 9 19 5 3 28 45 51
93 24 49 49 91 56 96 7 4 15 20 19 36 3 16 17 39 31 51 13 13 24 29 24 36 0 6
16 28 35 47 19 19 35 40 35 46 0 7 15 27 34 46 19 19 37 42 40 52 3 10 24 36
46 58 21 22 39 48 40 58 0 10 52 70 115 133 63 62 115 118 115 123 0 5 6 14
14 20 7 6 16 24 19 39 3 15 17 39 31 54 15 15 26 34 26 41 0 8 7 20 15 27 8 7
15 25 15 39 0 15 7 36 15 47 8 10 15 27 15 36 0 10 9 23 20 30 11 7 20 24 20
38 0 14 7 38 15 54 8 15 15 34 15 41 0 7 6 18 14 24 7 6 16 33 19 59 3 26 17
70 30 97 14 28 28 67 32 89 4 26 12 40 26 43 10 3 19 13 19 23 0 10 7 23 15
30 8 7 15 20 15 30 0 10 7 23 15 30 8 7 15 25 15 39 0 15 7 36 15 47 8 10 15
27 15 37 0 11 6 33 14 50 8 18 17 49 21 70 3 21 13 41 21 44 7 3 14 17 14 32
0 15 7 36 15 47 8 10 15 31 15 45 0 14 7 34 15 45 8 10 15 37 15 59 0 22 7 53
15 69 8 15 15 38 15 50 0 12 7 31 15 42 8 10 15 37 15 59 0 22 6 49 14 60 7
11 16 57 19 103 4 63 9 87 23 96 16 12 17 55 18 604 1 568 0 592 -18 605 -13
9 -20 31 -24 68 -2 30 -11 63 -18 74 -8 11 -14 31 -14 45 0 14 -7 34 -15 44
-8 11 -15 30 -15 42 0 12 -7 35 -15 50 -8 16 -15 45 -15 64 0 19 -7 44 -15 54
-8 11 -15 40 -15 64 0 25 -6 50 -15 58 -8 9 -15 24 -15 35 0 11 -7 22 -15 25
-8 3 -17 22 -21 41 -4 19 -20 59 -35 89 -16 29 -29 58 -29 64 0 6 -13 25 -30
43 -16 18 -30 37 -30 43 0 5 -13 20 -29 32 -28 20 -111 168 -111 197 0 7 -7
18 -15 25 -8 7 -15 19 -15 27 0 8 -13 25 -29 39 -17 14 -33 35 -37 47 -4 12
-20 37 -35 55 -16 18 -29 38 -29 44 0 5 -13 26 -30 45 -16 18 -30 40 -30 48 0
8 -7 15 -15 15 -9 0 -19 10 -24 23 -14 34 -191 197 -216 197 -7 0 -18 7 -25
15 -7 8 -20 15 -30 15 -10 0 -23 7 -30 15 -7 8 -23 15 -35 15 -12 0 -28 7 -35
15 -7 8 -27 15 -44 15 -18 0 -41 7 -52 15 -10 8 -28 15 -40 15 -11 0 -29 9
-39 20 -10 11 -30 20 -45 20 -15 0 -33 7 -40 15 -8 9 -30 15 -59 15 -26 0 -56
7 -67 15 -10 8 -39 15 -64 15 -26 0 -56 7 -70 17 -21 15 -68 17 -429 19 -223
1 -419 0 -436 -2z m648 -583 c6 -6 19 -11 28 -11 9 0 22 -7 29 -15 7 -8 23
-15 37 -15 13 0 26 -7 29 -15 4 -8 17 -15 29 -15 24 0 161 -65 171 -81 3 -5
15 -9 28 -9 12 0 31 -7 42 -15 10 -8 29 -15 40 -15 12 0 27 -7 34 -15 7 -8 23
-15 36 -15 13 0 29 -9 36 -20 7 -11 17 -20 21 -20 5 0 29 -13 54 -30 24 -16
52 -30 62 -30 10 0 24 -7 31 -15 7 -8 19 -15 27 -15 18 0 93 -72 93 -89 0 -6
29 -40 65 -76 36 -35 65 -72 65 -83 0 -10 16 -32 35 -48 19 -16 35 -34 35 -40
0 -6 13 -27 30 -45 16 -19 30 -39 30 -45 0 -6 7 -17 15 -24 8 -7 15 -23 15
-35 0 -12 7 -28 15 -35 9 -7 15 -29 15 -54 0 -23 6 -50 14 -61 7 -11 16 -49
19 -84 4 -44 10 -67 21 -73 14 -8 16 -64 16 -513 0 -494 0 -505 -20 -517 -19
-12 -20 -24 -20 -214 0 -167 -3 -204 -15 -214 -10 -8 -15 -30 -15 -65 0 -35
-5 -57 -15 -65 -8 -7 -15 -27 -15 -45 0 -18 -7 -38 -15 -45 -8 -7 -15 -20 -15
-30 0 -10 -7 -23 -15 -30 -8 -7 -15 -28 -15 -47 0 -21 -6 -36 -15 -39 -8 -4
-15 -19 -15 -35 0 -18 -7 -32 -20 -39 -11 -6 -20 -19 -20 -28 0 -10 -8 -24
-17 -33 -40 -35 -73 -85 -73 -110 0 -14 -7 -32 -15 -39 -8 -7 -15 -28 -15 -47
0 -26 -5 -36 -20 -40 -14 -4 -20 -14 -20 -33 0 -15 -7 -33 -15 -40 -8 -7 -15
-20 -15 -30 0 -10 -7 -23 -15 -30 -8 -7 -15 -23 -15 -36 0 -13 -4 -24 -10 -24
-5 0 -12 -11 -16 -25 -3 -13 -12 -29 -20 -36 -8 -6 -14 -19 -14 -29 0 -10 -7
-23 -15 -30 -8 -7 -15 -23 -15 -36 0 -13 -9 -28 -20 -34 -11 -6 -20 -20 -20
-31 0 -11 -7 -22 -15 -25 -8 -4 -15 -12 -15 -20 0 -8 -4 -14 -10 -14 -5 0 -12
-11 -16 -25 -3 -13 -12 -29 -20 -36 -8 -6 -14 -19 -14 -29 0 -10 -7 -23 -15
-30 -8 -7 -15 -21 -15 -31 0 -10 -9 -23 -20 -29 -11 -6 -20 -21 -20 -34 0 -13
-7 -29 -15 -36 -8 -7 -15 -21 -15 -32 0 -10 -7 -21 -15 -24 -8 -4 -15 -16 -15
-28 0 -11 -14 -34 -30 -50 -17 -16 -30 -38 -30 -48 0 -10 -8 -22 -17 -25 -25
-10 -52 -44 -53 -66 0 -10 -7 -20 -15 -23 -8 -4 -15 -12 -15 -18 0 -7 -13 -26
-30 -42 -16 -16 -30 -35 -30 -43 0 -14 -40 -61 -52 -61 -4 0 -41 -34 -81 -75
-41 -41 -78 -75 -83 -75 -5 0 -19 -15 -31 -33 -12 -17 -40 -50 -62 -72 -22
-22 -40 -48 -41 -58 0 -10 -7 -20 -16 -24 -9 -3 -49 -39 -89 -80 -42 -42 -81
-73 -92 -73 -12 0 -49 -31 -94 -80 -40 -44 -77 -80 -81 -80 -5 0 -30 -23 -56
-52 -26 -28 -55 -58 -64 -67 -10 -8 -18 -23 -18 -32 0 -9 -7 -22 -15 -29 -8
-7 -15 -21 -15 -32 0 -11 -9 -22 -20 -25 -19 -5 -20 -14 -20 -122 0 -117 0
-117 -30 -146 -16 -16 -30 -35 -30 -43 0 -14 -231 -252 -245 -252 -12 0 -44
-44 -45 -60 0 -9 -13 -27 -30 -40 -16 -14 -29 -29 -30 -34 0 -5 -43 -50 -95
-100 -52 -51 -95 -99 -95 -108 0 -9 -10 -22 -22 -30 -27 -18 -138 -126 -138
-134 0 -8 -76 -84 -83 -84 -8 0 -132 -130 -136 -143 -2 -7 -25 -33 -52 -59
-27 -26 -49 -50 -49 -54 0 -9 -76 -84 -85 -84 -10 0 -44 -43 -45 -57 0 -13
-132 -153 -143 -153 -10 0 -47 -39 -47 -49 0 -5 -36 -43 -80 -83 -44 -40 -80
-78 -80 -84 0 -13 -137 -154 -150 -154 -6 0 -10 -5 -10 -11 0 -11 -133 -149
-144 -149 -3 0 -32 -27 -64 -60 -34 -34 -68 -60 -79 -60 -11 0 -42 -22 -69
-50 -27 -27 -55 -50 -62 -50 -7 0 -20 -7 -28 -15 -9 -8 -23 -15 -33 -15 -9 0
-52 -33 -94 -72 -110 -104 -152 -138 -170 -138 -9 0 -18 -4 -22 -9 -3 -5 -30
-13 -60 -16 -65 -9 -82 1 -200 110 -38 36 -77 65 -86 65 -8 0 -52 37 -97 82
-132 135 -304 288 -324 288 -6 0 -27 14 -48 30 -21 17 -44 30 -51 30 -8 0 -29
16 -48 35 -19 19 -38 35 -43 35 -6 0 -27 13 -48 30 -21 16 -45 30 -53 30 -8 0
-20 7 -27 15 -7 8 -19 15 -27 15 -23 0 -73 56 -73 83 0 13 -9 32 -20 42 -11
10 -20 24 -20 30 0 21 -262 293 -306 318 -8 4 -14 13 -14 19 0 6 -7 18 -15 27
-63 65 -115 128 -115 139 0 8 -16 28 -35 45 -19 17 -35 35 -35 41 0 6 -20 33
-45 61 -25 27 -45 56 -45 63 0 8 -13 31 -30 52 -17 21 -30 42 -30 47 0 5 -16
24 -35 43 -19 19 -35 42 -35 52 0 10 -4 18 -9 18 -5 0 -13 12 -19 28 -5 15
-26 43 -46 62 -76 73 -146 152 -146 165 0 6 -14 25 -30 44 -17 18 -30 40 -30
48 0 7 -7 16 -15 19 -8 3 -17 15 -21 26 -3 11 -20 34 -38 51 -36 36 -96 111
-96 121 0 4 -52 57 -115 119 -63 62 -115 120 -115 129 0 9 -3 18 -7 20 -12 5
-53 66 -53 77 0 5 -14 25 -30 43 -17 18 -30 37 -30 43 0 5 -16 25 -35 44 -19
19 -35 38 -35 43 0 6 -14 27 -30 48 -17 21 -30 44 -30 51 0 8 -7 23 -15 33 -8
11 -15 27 -15 36 0 8 -9 21 -20 28 -11 7 -20 21 -20 31 0 10 -7 24 -15 31 -8
7 -15 17 -15 22 0 6 -14 27 -30 48 -17 21 -30 45 -30 54 0 9 -7 19 -15 22 -8
3 -17 15 -21 26 -3 11 -15 29 -25 39 -10 10 -19 27 -19 37 0 9 -7 26 -15 36
-8 11 -15 31 -15 44 0 13 -7 30 -15 38 -8 9 -15 24 -15 33 0 10 -7 24 -15 31
-8 7 -15 20 -15 30 0 10 -7 23 -15 30 -8 7 -15 21 -15 31 0 11 -4 19 -10 19
-5 0 -13 12 -16 27 -4 15 -25 45 -46 68 -50 52 -88 126 -88 175 0 21 -6 43
-15 50 -8 7 -15 29 -15 49 0 25 -6 40 -20 49 -11 7 -20 20 -20 30 0 9 -7 26
-15 36 -8 11 -15 31 -15 45 0 14 -7 35 -15 45 -8 11 -15 32 -15 46 0 14 -5 31
-11 37 -6 6 -13 48 -16 94 -3 46 -10 90 -16 97 -5 7 -12 56 -15 110 -2 53 -10
103 -16 111 -8 10 -12 145 -14 443 -3 356 -1 433 11 451 8 12 17 60 20 106 3
46 10 88 16 94 6 6 11 23 11 37 0 14 7 35 15 46 8 10 15 26 15 35 0 9 7 22 15
29 8 7 15 20 15 30 0 9 16 32 35 51 19 19 35 44 35 55 0 12 7 27 15 34 8 7 15
18 15 25 0 7 7 18 15 25 8 7 15 20 15 30 0 10 7 23 15 30 8 7 15 20 15 30 0
10 7 23 15 30 8 7 15 20 15 30 0 10 7 23 14 30 15 12 49 78 61 118 3 12 11 22
16 22 5 0 9 8 9 19 0 10 7 24 15 31 8 7 15 20 15 30 0 10 7 23 15 30 8 7 15
19 15 27 0 8 16 31 35 50 19 19 35 38 35 42 0 12 65 81 76 81 6 0 24 13 40 30
16 16 32 30 35 30 4 0 40 33 82 73 41 39 81 77 88 83 27 20 255 219 294 256
22 21 51 41 65 45 14 3 40 19 58 35 18 15 40 28 48 28 9 0 33 14 54 30 21 17
43 30 49 30 6 0 20 9 31 20 11 11 33 20 49 20 17 0 32 4 35 9 4 5 25 12 49 16
23 4 47 11 52 15 6 4 42 11 80 15 39 4 79 14 90 21 11 8 29 14 41 14 12 0 35
7 50 15 16 8 40 15 54 15 14 0 34 7 44 15 11 8 32 15 47 15 15 0 40 7 55 15
16 8 40 15 54 15 15 0 31 5 36 10 6 6 43 14 83 17 39 3 74 10 77 14 7 13 341
11 349 -1 3 -5 25 -10 48 -10 23 0 55 -7 71 -15 15 -8 35 -15 43 -15 8 0 32
-13 53 -30 21 -16 42 -30 47 -30 5 0 23 -13 41 -30 18 -16 36 -30 39 -30 11 0
83 -75 83 -86 0 -7 7 -14 15 -18 8 -3 15 -13 15 -22 0 -9 14 -33 30 -54 17
-21 30 -45 30 -54 0 -9 5 -16 12 -16 15 0 58 -49 58 -66 0 -7 20 -33 45 -58
25 -26 45 -55 45 -66 0 -10 9 -24 20 -30 11 -6 20 -21 20 -33 0 -12 7 -31 15
-41 9 -12 15 -42 15 -72 0 -34 5 -56 15 -64 8 -7 15 -29 15 -50 0 -33 8 -46
65 -102 l65 -65 0 -132 c0 -120 -2 -132 -20 -143 -15 -10 -20 -24 -20 -60 0
-28 -6 -53 -15 -62 -8 -8 -15 -24 -15 -36 0 -11 -7 -23 -15 -26 -8 -4 -15 -14
-15 -23 0 -9 -13 -31 -30 -49 -16 -18 -30 -38 -30 -43 0 -5 -7 -12 -15 -15 -8
-4 -15 -14 -15 -23 0 -10 -16 -31 -35 -48 -25 -23 -35 -40 -35 -61 0 -17 -7
-37 -15 -46 -19 -19 -19 -105 0 -130 8 -11 15 -34 15 -52 0 -23 10 -40 35 -65
19 -19 35 -38 35 -44 0 -5 20 -32 45 -60 25 -27 45 -57 45 -65 1 -8 14 -26 30
-40 17 -13 30 -33 30 -43 0 -11 22 -40 50 -66 27 -26 50 -54 50 -63 0 -15 139
-148 154 -148 14 0 66 -44 66 -57 0 -7 5 -13 11 -13 6 0 32 -20 57 -45 25 -25
50 -45 56 -45 21 0 136 -107 136 -126 0 -6 29 -41 65 -76 36 -36 65 -73 65
-81 0 -20 65 -87 84 -87 8 0 19 -7 26 -15 10 -12 37 -15 124 -15 112 0 112 0
141 30 16 17 33 30 38 30 5 0 17 10 28 23 41 49 17 223 -37 267 -7 7 -14 18
-14 24 0 6 -27 40 -60 76 -32 36 -67 81 -77 100 -10 19 -22 38 -28 42 -5 4
-19 13 -29 20 -11 7 -38 32 -62 54 -23 23 -53 44 -66 47 -27 7 -334 309 -343
337 -3 11 -25 38 -49 62 -46 47 -66 98 -66 170 0 32 6 50 20 63 11 10 20 26
20 35 0 10 7 23 15 30 8 7 15 21 15 31 0 10 9 24 20 31 11 7 20 22 20 33 0 12
7 30 15 41 8 10 15 35 15 54 0 20 6 44 14 55 7 11 17 57 21 103 4 45 11 82 15
82 4 0 11 15 14 33 5 24 36 60 131 152 69 65 125 123 125 128 0 5 16 28 36 51
51 60 54 64 54 78 0 7 9 19 20 26 11 7 20 19 20 27 0 9 16 31 35 51 19 19 35
40 35 47 0 7 12 26 28 42 15 17 33 43 40 58 7 16 63 77 125 135 61 59 195 189
296 290 101 100 188 182 192 182 5 0 41 32 81 70 40 39 79 70 86 70 7 0 23 10
35 21 12 12 36 28 54 35 17 8 34 18 38 24 3 5 17 10 29 10 13 0 29 7 36 15 7
8 20 15 29 15 9 0 25 7 35 15 11 8 32 15 47 15 15 0 40 7 55 15 19 9 57 15
107 15 43 0 88 6 100 12 59 33 860 59 890 29z m-6644 -921 c4 -31 -22 -83 -69
-135 -19 -22 -44 -58 -55 -80 -11 -22 -23 -42 -26 -45 -4 -3 -22 -34 -42 -70
-36 -67 -63 -84 -85 -57 -19 22 -18 94 1 115 10 10 17 32 17 49 0 17 8 37 19
47 10 9 22 31 25 48 10 49 51 96 91 104 20 3 41 14 48 24 26 37 70 37 76 0z
m384 -4610 c25 -27 48 -58 52 -70 3 -11 11 -20 16 -20 5 0 13 -8 16 -17 9 -24
75 -113 84 -113 4 0 9 -13 12 -30 4 -17 25 -47 52 -72 32 -30 45 -50 45 -70 0
-15 4 -29 9 -32 5 -4 19 -25 30 -49 12 -23 34 -57 51 -76 16 -18 30 -39 30
-45 0 -12 318 -323 346 -339 8 -4 14 -16 14 -25 0 -9 20 -40 45 -67 25 -28 45
-54 45 -60 0 -15 74 -95 88 -95 6 0 12 -8 12 -18 0 -10 14 -32 30 -50 17 -18
30 -44 30 -58 0 -24 -14 -32 -25 -15 -3 5 -19 12 -35 16 -17 4 -30 12 -30 18
0 13 -168 177 -181 177 -5 0 -9 7 -9 15 0 9 -13 24 -30 33 -16 9 -30 22 -30
29 0 15 -51 63 -67 63 -15 0 -79 68 -105 111 -10 16 -33 36 -51 44 -37 16
-157 136 -157 158 0 8 -16 29 -35 46 -19 17 -35 39 -35 49 0 11 -7 25 -15 32
-8 7 -15 21 -15 31 0 10 -5 21 -10 24 -6 4 -16 21 -24 38 -7 18 -22 41 -32 52
-11 11 -25 32 -31 48 -7 15 -17 27 -23 27 -5 0 -10 7 -10 15 0 16 -39 77 -52
83 -5 2 -8 11 -8 21 0 9 -13 30 -30 46 -16 16 -30 35 -30 42 0 7 -9 21 -20 30
-20 17 -37 93 -25 112 3 6 19 11 34 11 21 0 40 -13 74 -50z"/>
</g>
</svg>
